Bon Jovi Live At Madison Square Garden Mkv 1080p Ac3 640 Kbps


The songs include:
1.Lost Highway (This is not the Hank Williams song, it's an original Bon Jovi song.)
2.Born to Be My Baby.
3.Blaze of Glory.
4.It's my Life.
5.Keep the Faith.
6.Raise Your Hands.
7.Living in Sin.
8.Chapel of Love.
9.Always.
10.Whole Lot of Leavin'.
11.In These Arms.
12.We Got it Going On.
13.I'll be There for You.
14.(You Want to) Make a Memory.
15.Blood on Blood.
16.Dry County.
17.Have a Nice Day.
18.Who Says You Can't Go Home.
19.Hallelujah.
20.Wanted Dead or Alive.
21.Livin' On a Prayer.
22.Bad Medicine (This is played during the credits portion.)

General 
Unique ID : 177934747917451266325305890814792954251 (0x85DCFC64FFB9E7649930FBA28AFDF18B) 
Bon Jovi Live At Madison Square Garden Mkv 1080p Ac3 640 Kbps.mkv 
Format : Matroska 
Format version : Version 2 
File size : 6.95 GiB 
Duration : 2h 5mn 
Overall bit rate : 7 921 Kbps 
Movie name : BON JOVI LIVE AT MADISON SQUARE GARDEN.Title3.BlurayRip 
Encoded date : UTC 2012-11-01 08:49:43 

Writing library : libebml v0.7.8 + libmatroska v0.8.1 

Video 
ID : 1 
Format : AVC 
Format/Info : Advanced Video Codec 
Format profile : High@L4.1 
Format settings, CABAC : Yes 
Format settings, ReFrames : 2 frames 
Codec ID : V_MPEG4/ISO/AVC 
Duration : 2h 5mn 
Bit rate : 7 123 Kbps 
Width : 1 920 pixels 
Height : 1 080 pixels 
Display aspect ratio : 16:9 
Frame rate mode : Constant 
Frame rate : 23.976 fps 
Color space : YUV 
Chroma subsampling : 4:2:0 
Bit depth : 8 bits 
Scan type : Progressive 
Bits/(Pixel*Frame) : 0.143 
Stream size : 6.25 GiB (90%) 
Writing library : x264 core 
Default : Yes 
Forced : No 
Color primaries : BT.709 
Transfer characteristics : BT.709 
Matrix coefficients : BT.709 

Audio 
ID : 2 
Format : AC-3 
Format/Info : Audio Coding 3 
Mode extension : CM (complete main) 
Format settings, Endianness : Big 
Codec ID : A_AC3 
Duration : 2h 5mn 
Bit rate mode : Constant 
Bit rate : 640 Kbps 
Channel(s) : 6 channels 
Channel positions : Front: L C R, Side: L R, LFE 
Sampling rate : 48.0 KHz 
Bit depth : 16 bits 
Compression mode : Lossy 
Stream size : 575 MiB (8%) 
Language : English 
Default : Yes 
Forced : No 

Menu 
00:00:00.000 : en:(01)00:00:00:000 
00:04:19.259 : en:(02)00:04:19:259 
00:09:28.192 : en:(03)00:09:28:192 
00:15:35.434 : en:(04)00:15:35:434 
00:19:21.160 : en:(05)00:19:21:160 
00:25:42.541 : en:(06)00:25:42:541 
00:30:34.541 : en:(07)00:30:34:541 
00:36:31.606 : en:(08)00:36:31:606 
00:43:53.297 : en:(09)00:43:53:297 
00:48:57.893 : en:(10)00:48:57:893 
00:55:22.319 : en:(11)00:55:22:319 
01:00:07.478 : en:(12)01:00:07:478 
01:09:06.142 : en:(13)01:09:06:142 
01:13:47.005 : en:(14)01:13:47:005 
01:19:49.034 : en:(15)01:19:49:034 
01:29:45.630 : en:(16)01:29:45:630 
01:34:08.851 : en:(17)01:34:08:851 
01:40:13.007 : en:(18)01:40:13:007 
01:49:14.839 : en:(19)01:49:14:839 
01:54:54.137 : en:(20)01:54:54:137 
02:01:05.258 : en:(21)02:01:05:258 
02:05:40.533 : en:(22)02:05:40:533 
